<svg width="619" height="394" viewBox="0 0 619 394" fill="none" xmlns="http://www.w3.org/2000/svg">
<path fill-rule="evenodd" clip-rule="evenodd" d="M128.004 -288.565C168.27 -265.311 172.33 -213.038 187.156 -167.254C204.385 -114.048 251.209 -61.9553 218.77 -8.26759C185.739 46.4009 113.221 43.8727 54.3087 52.6122C-2.15418 60.9884 -65.4129 76.8593 -102.233 39.3525C-139.751 1.13375 -127.783 -64.4311 -118.504 -123.424C-108.283 -188.4 -104.923 -265.352 -48.3398 -303.258C8.43658 -341.294 76.5749 -318.267 128.004 -288.565Z" fill="#C20292" fill-opacity="0.94"/>
<path fill-rule="evenodd" clip-rule="evenodd" d="M-42.1908 -83.147C1.69 -118.798 52.2352 -133.522 99.6607 -146.78C146.34 -159.829 192.884 -169.436 226.906 -158.373C261.89 -146.998 285.386 -121.483 289.54 -85.0395C293.602 -49.393 273.764 -4.96687 249.315 38.2537C225.486 80.3789 194.057 121.785 152.55 157.13C109.695 193.623 61.238 223.841 13.5758 238.995C-35.0805 254.465 -81.0945 256.565 -113.291 241.651C-144.749 227.079 -156.675 194.477 -160.282 158.46C-163.75 123.844 -153.588 84.0676 -133.244 42.4458C-111.96 -1.10066 -86.0323 -47.5275 -42.1908 -83.147Z" fill="#F04393" fill-opacity="0.75"/>
<path fill-rule="evenodd" clip-rule="evenodd" d="M101.374 -157.514C115.399 -189.508 131.296 -221.476 153.448 -247.416C175.744 -273.525 202.019 -291.525 228.26 -306.095C254.642 -320.744 279.549 -329.666 304.31 -329.052C328.921 -328.442 349.679 -316.497 368.35 -302.621C387.21 -288.604 408.382 -276.384 416.98 -250.472C425.588 -224.529 421.357 -190.399 416.488 -157.544C411.78 -125.776 401.536 -93.9623 389.068 -62.1372C375.991 -28.7586 363.562 6.07845 341.494 33.8782C318.991 62.2256 291.029 81.5537 263.535 95.9994C236.25 110.335 208.235 119.409 183.223 117.037C158.815 114.723 140.899 98.1762 122.926 82.6679C105.374 67.5224 87.7505 51.9804 78.8708 26.993C69.904 1.76045 67.8734 -28.9359 71.8064 -61.183C75.6972 -93.0849 87.4329 -125.713 101.374 -157.514Z" fill="#8A2BE2" fill-opacity="0.85"/>
</svg>
