<svg width="598" height="450" viewBox="0 0 598 450" fill="none" xmlns="http://www.w3.org/2000/svg">
<path fill-rule="evenodd" clip-rule="evenodd" d="M513.167 693.414C469.731 676.819 457.457 625.845 435.579 582.981C410.154 533.168 355.683 489.134 379.225 430.993C403.198 371.789 475.203 362.82 531.993 344.876C586.421 327.678 646.375 302.006 688.662 333.219C731.751 365.025 730.3 431.658 730.464 491.376C730.645 557.151 739.494 633.666 689.616 680.042C639.567 726.576 568.645 714.611 513.167 693.414Z" fill="#C20292" fill-opacity="0.94"/>
<path fill-rule="evenodd" clip-rule="evenodd" d="M648.743 463.671C611.051 505.812 563.47 528.342 518.737 548.931C474.708 569.197 430.268 586.041 394.924 580.497C358.582 574.796 331.347 553.317 321.484 517.988C311.837 483.432 324.402 436.428 341.71 389.886C358.579 344.523 383.065 298.669 418.462 257.206C455.009 214.396 498.079 176.896 542.746 154.398C588.344 131.43 633.447 122.081 667.597 131.717C700.963 141.132 717.893 171.438 727.15 206.432C736.047 240.064 732.302 280.947 718.795 325.262C704.663 371.626 686.402 421.568 648.743 463.671Z" fill="#F04393" fill-opacity="0.75"/>
<path fill-rule="evenodd" clip-rule="evenodd" d="M518.742 559.801C509.951 593.61 499.309 627.69 481.537 656.805C463.649 686.111 440.551 708.039 416.944 726.575C393.209 745.21 370.026 757.958 345.48 761.267C321.081 764.555 298.696 756.043 278.066 745.293C257.227 734.435 234.389 725.715 221.803 701.489C209.201 677.233 207.983 642.864 207.596 609.652C207.222 577.539 212.308 544.506 219.587 511.11C227.222 476.084 233.987 439.72 251.382 408.78C269.12 377.232 293.675 353.726 318.538 335.115C343.214 316.645 369.442 303.257 394.514 301.644C418.981 300.07 439.288 313.576 459.487 326.048C479.213 338.227 499.072 350.788 511.79 374.057C524.634 397.554 531.492 427.543 532.707 460.007C533.909 492.123 527.48 526.196 518.742 559.801Z" fill="#8A2BE2" fill-opacity="0.85"/>
</svg>
