<svg width="720" height="535" viewBox="0 0 720 535" fill="none" xmlns="http://www.w3.org/2000/svg">
<path fill-rule="evenodd" clip-rule="evenodd" d="M326.698 246.925C351.156 314.094 307.413 380.873 281.969 450.338C252.4 531.067 257.657 639.283 170.925 672.209C82.6073 705.736 2.13695 632.061 -73.2267 585.179C-145.456 540.247 -232.383 497.703 -239.716 416.761C-247.187 334.283 -172.839 267.142 -107.642 205.281C-35.8338 137.147 39.2251 47.9365 138.922 57.4953C238.961 67.0868 295.458 161.133 326.698 246.925Z" fill="#C20292" fill-opacity="0.94"/>
<path fill-rule="evenodd" clip-rule="evenodd" d="M-57.7746 328.022C25.331 327.918 96.678 359.457 163.106 389.719C228.488 419.505 290.529 453.296 319.142 499.732C348.563 547.479 351.78 601.031 322.793 648.876C294.441 695.674 230.669 729.743 162.748 757.872C96.5488 785.289 22.3371 804.438 -57.7746 806.486C-140.487 808.601 -223.791 797.718 -292.243 769.504C-362.123 740.701 -416.613 698.405 -439.576 649.119C-462.012 600.964 -445.457 550.165 -416.242 503.365C-388.163 458.384 -339.745 420.478 -277.992 390.272C-213.383 358.668 -140.806 328.126 -57.7746 328.022Z" fill="#F04393" fill-opacity="0.75"/>
<path fill-rule="evenodd" clip-rule="evenodd" d="M174.997 378.487C220.623 353.698 268.364 330.761 317.668 321.163C367.293 311.503 413.958 315.463 457.408 323.512C501.093 331.606 537.793 345.143 565.5 370C593.04 394.707 605.688 429.282 614.167 464.145C622.732 499.363 635.599 534.673 621.435 574.188C607.254 613.754 570.835 650.65 534.866 685.394C500.087 718.988 458.945 747.244 415.252 773.347C369.426 800.725 322.991 830.487 272.061 842.402C220.127 854.552 170.307 850.543 125.542 841.124C81.1154 831.776 40.7256 815.392 14.3585 788.179C-11.3718 761.623 -16.5167 724.284 -22.6869 688.139C-28.7128 652.84 -34.4533 616.994 -21.4669 578.314C-8.35311 539.255 17.7382 500.385 52.0751 465.46C86.0442 430.909 129.644 403.127 174.997 378.487Z" fill="#8A2BE2" fill-opacity="0.85"/>
</svg>
