<svg width="458" height="526" viewBox="0 0 458 526" fill="none" xmlns="http://www.w3.org/2000/svg">
<path fill-rule="evenodd" clip-rule="evenodd" d="M-234.84 510.529C-217.18 467.515 -165.919 456.5 -122.53 435.684C-72.1055 411.493 -26.7437 358.123 30.8002 383.09C89.3954 408.513 96.5887 480.717 113.129 537.931C128.982 592.767 153.171 653.334 120.925 694.84C88.0678 737.133 21.4913 734.041 -38.2131 732.735C-103.972 731.297 -180.682 738.258 -225.816 687.254C-271.103 636.075 -257.396 565.469 -234.84 510.529Z" fill="#C20292" fill-opacity="0.94"/>
<path fill-rule="evenodd" clip-rule="evenodd" d="M-8.50415 651.721C-49.7041 613.003 -71.0561 564.881 -90.5377 519.655C-109.713 475.14 -125.458 430.299 -119.045 395.103C-112.451 358.912 -90.308 332.214 -54.7472 323.224C-19.9643 314.431 26.716 328.149 72.8182 346.597C117.752 364.578 162.989 390.186 203.568 426.594C245.465 464.183 281.893 508.163 303.285 553.37C325.123 599.52 333.359 644.84 322.885 678.742C312.651 711.866 281.938 728.045 246.727 736.438C212.885 744.504 172.107 739.753 128.138 725.159C82.1364 709.89 32.659 690.405 -8.50415 651.721Z" fill="#F04393" fill-opacity="0.75"/>
<path fill-rule="evenodd" clip-rule="evenodd" d="M-101.405 519.392C-134.986 509.772 -168.794 498.294 -197.463 479.81C-226.319 461.206 -247.672 437.575 -265.621 413.519C-283.667 389.332 -295.84 365.843 -298.543 341.222C-301.23 316.75 -292.168 294.582 -280.914 274.223C-269.546 253.657 -260.267 231.041 -235.738 219.055C-211.179 207.054 -176.791 206.682 -143.579 207.113C-111.467 207.531 -78.5689 213.428 -45.3621 221.527C-10.5344 230.022 25.6519 237.68 56.1534 255.832C87.2558 274.341 110.15 299.467 128.143 324.782C146 349.904 158.738 376.455 159.733 401.559C160.705 426.057 146.702 446.025 133.737 465.91C121.075 485.33 108.03 504.874 84.4548 517.016C60.6482 529.277 30.4993 535.395 -1.9842 535.81C-34.1198 536.221 -68.0247 528.955 -101.405 519.392Z" fill="#8A2BE2" fill-opacity="0.85"/>
</svg>
