<svg width="724" height="695" viewBox="0 0 724 695" fill="none" xmlns="http://www.w3.org/2000/svg">
<path fill-rule="evenodd" clip-rule="evenodd" d="M324.735 -34.7579C450.245 -36.2341 603.697 -34.7019 643.88 84.2108C684.791 205.278 568.174 305.566 465.407 381.525C358.702 460.396 227.873 546.763 117.281 473.443C-3.21644 393.554 -26.7529 225.308 27.8871 91.4556C72.8135 -18.601 205.87 -33.3599 324.735 -34.7579Z" fill="#C20292" fill-opacity="0.9"/>
<path fill-rule="evenodd" clip-rule="evenodd" d="M580.897 142.96C703.534 133.039 845.669 158.409 888 273.936C933.815 398.973 858.619 529.42 751.48 608.506C641.339 689.809 487.396 734.836 382.046 647.415C287.323 568.814 351.088 428.228 396.227 313.717C430.219 227.484 488.509 150.433 580.897 142.96Z" fill="#F04393" fill-opacity="0.75"/>
<path fill-rule="evenodd" clip-rule="evenodd" d="M644.567 -175.814C758.102 -169.988 720.513 -20.6358 760.119 71.5044C811.227 190.401 1004.55 316.682 890.647 396.665C776.175 477.048 651.524 310.656 544.64 222.816C490.338 178.189 461.469 120.285 477.335 56.9923C502.075 -41.7013 527.925 -181.8 644.567 -175.814Z" fill="#8A2BE2" fill-opacity="0.85"/>
</svg>
