<svg width="379" height="570" viewBox="0 0 379 570" fill="none" xmlns="http://www.w3.org/2000/svg">
<path fill-rule="evenodd" clip-rule="evenodd" d="M688.978 67.4507C668.547 109.22 616.676 116.863 572.02 134.801C520.123 155.646 471.373 205.94 415.582 177.268C358.773 148.072 356.311 75.5525 343.542 17.3798C331.305 -38.3739 311.124 -100.392 346.011 -139.703C381.561 -179.76 447.793 -172.327 507.285 -167.124C572.809 -161.393 649.811 -163.33 691.516 -109.486C733.364 -55.4582 715.075 14.1017 688.978 67.4507Z" fill="#C20292" fill-opacity="0.94"/>
<path fill-rule="evenodd" clip-rule="evenodd" d="M472.348 -88.2226C510.931 -46.896 529.094 2.51759 545.58 48.9197C561.807 94.5916 574.59 140.365 565.892 175.068C556.948 210.75 533.109 235.945 497.037 242.593C461.754 249.096 416.069 232.358 371.27 210.938C327.607 190.061 284.139 161.553 246.024 122.573C206.672 82.3274 173.194 36.0618 154.801 -10.4462C136.023 -57.9241 130.765 -103.685 143.431 -136.83C155.806 -169.215 187.511 -183.354 223.195 -189.429C257.491 -195.267 297.872 -187.863 340.794 -170.429C385.7 -152.187 433.799 -129.512 472.348 -88.2226Z" fill="#F04393" fill-opacity="0.75"/>
<path fill-rule="evenodd" clip-rule="evenodd" d="M556.407 49.8911C589.289 61.6843 622.274 75.3458 649.675 95.6625C677.254 116.112 697.019 141.087 713.358 166.264C729.785 191.578 740.398 215.812 741.487 240.557C742.57 265.152 732.08 286.681 719.52 306.262C706.833 326.041 696.097 348.003 670.838 358.362C645.547 368.733 611.208 366.857 578.095 364.258C546.078 361.744 513.636 353.711 481.029 343.46C446.831 332.708 411.222 322.703 381.971 302.598C352.144 282.097 330.94 255.529 314.638 229.093C298.461 202.859 287.484 175.533 288.13 150.417C288.761 125.908 304.038 106.897 318.274 87.9008C332.177 69.3492 346.471 50.699 370.789 40.1229C395.346 29.443 425.83 25.3073 458.271 27.0146C490.365 28.7035 523.723 38.1688 556.407 49.8911Z" fill="#8A2BE2" fill-opacity="0.85"/>
</svg>
