<svg width="1440" height="340" viewBox="0 0 1440 340" fill="none" xmlns="http://www.w3.org/2000/svg">
<rect x="723.297" y="26.6752" width="204.04" height="204.04" rx="37.5" transform="rotate(45.5354 723.297 26.6752)" stroke="#F9BD25" stroke-width="25"/>
<rect x="906.297" y="-148.323" width="204.04" height="204.04" rx="37.5" transform="rotate(45.5354 906.297 -148.323)" stroke="#16FFBD" stroke-width="25"/>
<rect x="1084.3" y="31.6769" width="204.04" height="204.04" rx="37.5" transform="rotate(45.5354 1084.3 31.6769)" stroke="#FF1493" stroke-width="25"/>
<rect x="1263.3" y="-146.323" width="204.04" height="204.04" rx="37.5" transform="rotate(45.5354 1263.3 -146.323)" stroke="#2DE2E6" stroke-width="25"/>
<rect x="1443.3" y="33.6769" width="204.04" height="204.04" rx="37.5" transform="rotate(45.5354 1443.3 33.6769)" stroke="#F9BD25" stroke-width="25"/>
<rect x="550.297" y="-153.323" width="204.04" height="204.04" rx="37.5" transform="rotate(45.5354 550.297 -153.323)" stroke="#2DE2E6" stroke-width="25"/>
<path d="M397.565 53.44L487.953 145.534C502.46 160.315 502.238 184.057 487.457 198.564L395.364 288.953C380.583 303.46 356.84 303.238 342.333 288.457L251.944 196.364C237.437 181.583 237.659 157.84 252.44 143.333L344.534 52.9444C359.315 38.4373 383.057 38.6592 397.565 53.44Z" stroke="#FF1493" stroke-width="25"/>
<rect x="183.297" y="-150.323" width="204.04" height="204.04" rx="37.5" transform="rotate(45.5354 183.297 -150.323)" stroke="#16FFBD" stroke-width="25"/>
<rect x="-0.703053" y="26.6769" width="204.04" height="204.04" rx="37.5" transform="rotate(45.5354 -0.703053 26.6769)" stroke="#F9BD25" stroke-width="25"/>
</svg>
