<svg width="544" height="332" viewBox="0 0 544 332" fill="none" xmlns="http://www.w3.org/2000/svg">
<path d="M0.377502 130C0.377502 120.611 7.98866 113 17.3775 113H255.189C264.578 113 272.189 120.611 272.189 130V642C272.189 651.389 264.578 659 255.189 659H17.3775C7.98866 659 0.377502 651.389 0.377502 642V130Z" fill="black" fill-opacity="0.25"/>
<path d="M22.3622 146C22.3622 140.477 26.8394 136 32.3622 136H41.3421C46.865 136 51.3421 140.477 51.3421 146V167C51.3421 172.523 46.865 177 41.3421 177H32.3622C26.8394 177 22.3622 172.523 22.3622 167V146Z" fill="#DEFE47" fill-opacity="0.75"/>
<path d="M122.293 146C122.293 140.477 126.77 136 132.293 136H141.273C146.796 136 151.273 140.477 151.273 146V167C151.273 172.523 146.796 177 141.273 177H132.293C126.77 177 122.293 172.523 122.293 167V146Z" fill="#27163F"/>
<path d="M122.293 286C122.293 280.477 126.77 276 132.293 276H141.273C146.796 276 151.273 280.477 151.273 286V307C151.273 312.523 146.796 317 141.273 317H132.293C126.77 317 122.293 312.523 122.293 307V286Z" fill="#27163F"/>
<path d="M122.293 216C122.293 210.477 126.77 206 132.293 206H141.273C146.796 206 151.273 210.477 151.273 216V237C151.273 242.523 146.796 247 141.273 247H132.293C126.77 247 122.293 242.523 122.293 237V216Z" fill="#27163F"/>
<path d="M22.3622 216C22.3622 210.477 26.8394 206 32.3622 206H41.3421C46.865 206 51.3421 210.477 51.3421 216V237C51.3421 242.523 46.865 247 41.3421 247H32.3622C26.8394 247 22.3622 242.523 22.3622 237V216Z" fill="#27163F"/>
<path d="M72.3275 146C72.3275 140.477 76.8047 136 82.3275 136H91.3074C96.8303 136 101.307 140.477 101.307 146V167C101.307 172.523 96.8303 177 91.3074 177H82.3276C76.8047 177 72.3275 172.523 72.3275 167V146Z" fill="#27163F"/>
<path d="M72.3275 216C72.3275 210.477 76.8047 206 82.3275 206H91.3074C96.8303 206 101.307 210.477 101.307 216V237C101.307 242.523 96.8303 247 91.3074 247H82.3276C76.8047 247 72.3275 242.523 72.3275 237V216Z" fill="#27163F"/>
<path d="M72.3275 286C72.3275 280.477 76.8047 276 82.3275 276H91.3074C96.8303 276 101.307 280.477 101.307 286V307C101.307 312.523 96.8303 317 91.3074 317H82.3276C76.8047 317 72.3275 312.523 72.3275 307V286Z" fill="#27163F"/>
<path d="M22.3622 286C22.3622 280.477 26.8394 276 32.3622 276H41.3421C46.865 276 51.3421 280.477 51.3421 286V307C51.3421 312.523 46.865 317 41.3421 317H32.3622C26.8394 317 22.3622 312.523 22.3622 307V286Z" fill="#DEFE47" fill-opacity="0.75"/>
<path d="M172.258 286C172.258 280.477 176.735 276 182.258 276H191.238C196.761 276 201.238 280.477 201.238 286V307C201.238 312.523 196.761 317 191.238 317H182.258C176.735 317 172.258 312.523 172.258 307V286Z" fill="#DEFE47" fill-opacity="0.75"/>
<path d="M172.258 216C172.258 210.477 176.735 206 182.258 206H191.238C196.761 206 201.238 210.477 201.238 216V237C201.238 242.523 196.761 247 191.238 247H182.258C176.735 247 172.258 242.523 172.258 237V216Z" fill="#DEFE47" fill-opacity="0.75"/>
<path d="M222.223 216C222.223 210.477 226.701 206 232.223 206H241.203C246.726 206 251.203 210.477 251.203 216V237C251.203 242.523 246.726 247 241.203 247H232.223C226.701 247 222.223 242.523 222.223 237V216Z" fill="#27163F"/>
<path d="M222.223 286C222.223 280.477 226.701 276 232.223 276H241.203C246.726 276 251.203 280.477 251.203 286V307C251.203 312.523 246.726 317 241.203 317H232.223C226.701 317 222.223 312.523 222.223 307V286Z" fill="#27163F"/>
<path d="M172.258 146C172.258 140.477 176.735 136 182.258 136H191.238C196.761 136 201.238 140.477 201.238 146V167C201.238 172.523 196.761 177 191.238 177H182.258C176.735 177 172.258 172.523 172.258 167V146Z" fill="#27163F"/>
<path d="M222.223 146C222.223 140.477 226.701 136 232.223 136H241.203C246.726 136 251.203 140.477 251.203 146V167C251.203 172.523 246.726 177 241.203 177H232.223C226.701 177 222.223 172.523 222.223 167V146Z" fill="#DEFE47" fill-opacity="0.75"/>
<path d="M272.189 17C272.189 7.61117 279.8 0 289.189 0H527C536.389 0 544 7.61116 544 17V529C544 538.389 536.389 546 527 546H289.189C279.8 546 272.189 538.389 272.189 529V17Z" fill="black" fill-opacity="0.25"/>
<path d="M294.173 33C294.173 27.4772 298.651 23 304.173 23H313.153C318.676 23 323.153 27.4772 323.153 33V54C323.153 59.5228 318.676 64 313.153 64H304.173C298.651 64 294.173 59.5228 294.173 54V33Z" fill="#DEFE47" fill-opacity="0.75"/>
<path d="M394.104 33C394.104 27.4772 398.581 23 404.104 23H413.084C418.607 23 423.084 27.4772 423.084 33V54C423.084 59.5228 418.607 64 413.084 64H404.104C398.581 64 394.104 59.5228 394.104 54V33Z" fill="#27163F"/>
<path d="M394.104 173C394.104 167.477 398.581 163 404.104 163H413.084C418.607 163 423.084 167.477 423.084 173V194C423.084 199.523 418.607 204 413.084 204H404.104C398.581 204 394.104 199.523 394.104 194V173Z" fill="#27163F"/>
<path d="M394.104 313C394.104 307.477 398.581 303 404.104 303H413.084C418.607 303 423.084 307.477 423.084 313V334C423.084 339.523 418.607 344 413.084 344H404.104C398.581 344 394.104 339.523 394.104 334V313Z" fill="#27163F"/>
<path d="M344.139 243C344.139 237.477 348.616 233 354.139 233H363.119C368.642 233 373.119 237.477 373.119 243V264C373.119 269.523 368.642 274 363.119 274H354.139C348.616 274 344.139 269.523 344.139 264V243Z" fill="#27163F"/>
<path d="M294.173 243C294.173 237.477 298.651 233 304.173 233H313.153C318.676 233 323.153 237.477 323.153 243V264C323.153 269.523 318.676 274 313.153 274H304.173C298.651 274 294.173 269.523 294.173 264V243Z" fill="#27163F"/>
<path d="M344.139 313C344.139 307.477 348.616 303 354.139 303H363.119C368.642 303 373.119 307.477 373.119 313V334C373.119 339.523 368.642 344 363.119 344H354.139C348.616 344 344.139 339.523 344.139 334V313Z" fill="#27163F"/>
<path d="M394.104 103C394.104 97.4772 398.581 93 404.104 93H413.084C418.607 93 423.084 97.4772 423.084 103V124C423.084 129.523 418.607 134 413.084 134H404.104C398.581 134 394.104 129.523 394.104 124V103Z" fill="#DEFE47" fill-opacity="0.75"/>
<path d="M294.173 103C294.173 97.4772 298.651 93 304.173 93H313.153C318.676 93 323.153 97.4772 323.153 103V124C323.153 129.523 318.676 134 313.153 134H304.173C298.651 134 294.173 129.523 294.173 124V103Z" fill="#27163F"/>
<path d="M344.139 33C344.139 27.4772 348.616 23 354.139 23H363.119C368.642 23 373.119 27.4772 373.119 33V54C373.119 59.5228 368.642 64 363.119 64H354.139C348.616 64 344.139 59.5228 344.139 54V33Z" fill="#27163F"/>
<path d="M344.139 103C344.139 97.4772 348.616 93 354.139 93H363.119C368.642 93 373.119 97.4772 373.119 103V124C373.119 129.523 368.642 134 363.119 134H354.139C348.616 134 344.139 129.523 344.139 124V103Z" fill="#27163F"/>
<path d="M344.139 173C344.139 167.477 348.616 163 354.139 163H363.119C368.642 163 373.119 167.477 373.119 173V194C373.119 199.523 368.642 204 363.119 204H354.139C348.616 204 344.139 199.523 344.139 194V173Z" fill="#DEFE47" fill-opacity="0.75"/>
<path d="M394.104 243C394.104 237.477 398.581 233 404.104 233H413.084C418.607 233 423.084 237.477 423.084 243V264C423.084 269.523 418.607 274 413.084 274H404.104C398.581 274 394.104 269.523 394.104 264V243Z" fill="#27163F"/>
<path d="M494.035 313C494.035 307.477 498.512 303 504.035 303H513.015C518.537 303 523.015 307.477 523.015 313V334C523.015 339.523 518.537 344 513.015 344H504.035C498.512 344 494.035 339.523 494.035 334V313Z" fill="#27163F"/>
<path d="M444.069 313C444.069 307.477 448.547 303 454.069 303H463.049C468.572 303 473.049 307.477 473.049 313V334C473.049 339.523 468.572 344 463.049 344H454.069C448.547 344 444.069 339.523 444.069 334V313Z" fill="#DEFE47" fill-opacity="0.75"/>
<path d="M294.173 313C294.173 307.477 298.651 303 304.173 303H313.153C318.676 303 323.153 307.477 323.153 313V334C323.153 339.523 318.676 344 313.153 344H304.173C298.651 344 294.173 339.523 294.173 334V313Z" fill="#DEFE47" fill-opacity="0.75"/>
<path d="M294.173 173C294.173 167.477 298.651 163 304.173 163H313.153C318.676 163 323.153 167.477 323.153 173V194C323.153 199.523 318.676 204 313.153 204H304.173C298.651 204 294.173 199.523 294.173 194V173Z" fill="#27163F"/>
<path d="M444.069 173C444.069 167.477 448.547 163 454.069 163H463.049C468.572 163 473.049 167.477 473.049 173V194C473.049 199.523 468.572 204 463.049 204H454.069C448.547 204 444.069 199.523 444.069 194V173Z" fill="#27163F"/>
<path d="M444.069 103C444.069 97.4772 448.547 93 454.069 93H463.049C468.572 93 473.049 97.4772 473.049 103V124C473.049 129.523 468.572 134 463.049 134H454.069C448.547 134 444.069 129.523 444.069 124V103Z" fill="#27163F"/>
<path d="M494.035 103C494.035 97.4772 498.512 93 504.035 93H513.015C518.537 93 523.015 97.4772 523.015 103V124C523.015 129.523 518.537 134 513.015 134H504.035C498.512 134 494.035 129.523 494.035 124V103Z" fill="#DEFE47" fill-opacity="0.75"/>
<path d="M494.035 173C494.035 167.477 498.512 163 504.035 163H513.015C518.537 163 523.015 167.477 523.015 173V194C523.015 199.523 518.537 204 513.015 204H504.035C498.512 204 494.035 199.523 494.035 194V173Z" fill="#27163F"/>
<path d="M444.069 243C444.069 237.477 448.547 233 454.069 233H463.049C468.572 233 473.049 237.477 473.049 243V264C473.049 269.523 468.572 274 463.049 274H454.069C448.547 274 444.069 269.523 444.069 264V243Z" fill="#27163F"/>
<path d="M494.035 243C494.035 237.477 498.512 233 504.035 233H513.015C518.537 233 523.015 237.477 523.015 243V264C523.015 269.523 518.537 274 513.015 274H504.035C498.512 274 494.035 269.523 494.035 264V243Z" fill="#27163F"/>
<path d="M444.069 33C444.069 27.4772 448.547 23 454.069 23H463.049C468.572 23 473.049 27.4772 473.049 33V54C473.049 59.5228 468.572 64 463.049 64H454.069C448.547 64 444.069 59.5228 444.069 54V33Z" fill="#27163F"/>
<path d="M494.035 33C494.035 27.4772 498.512 23 504.035 23H513.015C518.537 23 523.015 27.4772 523.015 33V54C523.015 59.5228 518.537 64 513.015 64H504.035C498.512 64 494.035 59.5228 494.035 54V33Z" fill="#DEFE47" fill-opacity="0.75"/>
</svg>
