<svg width="544" height="332" viewBox="0 0 544 332" fill="none" xmlns="http://www.w3.org/2000/svg">
<path d="M0 17C0 7.61117 7.61116 0 17 0H254.811C264.2 0 271.811 7.61116 271.811 17V529C271.811 538.389 264.2 546 254.811 546H17C7.61116 546 0 538.389 0 529V17Z" fill="black" fill-opacity="0.25"/>
<path d="M121.915 33C121.915 27.4772 126.392 23 131.915 23H140.895C146.418 23 150.895 27.4772 150.895 33V54C150.895 59.5228 146.418 64 140.895 64H131.915C126.392 64 121.915 59.5228 121.915 54V33Z" fill="#27163F"/>
<path d="M121.915 173C121.915 167.477 126.392 163 131.915 163H140.895C146.418 163 150.895 167.477 150.895 173V194C150.895 199.523 146.418 204 140.895 204H131.915C126.392 204 121.915 199.523 121.915 194V173Z" fill="#27163F"/>
<path d="M170.881 173C170.881 167.477 175.358 163 180.881 163H189.861C195.384 163 199.861 167.477 199.861 173V194C199.861 199.523 195.384 204 189.861 204H180.881C175.359 204 170.881 199.523 170.881 194V173Z" fill="#27163F"/>
<path d="M221.846 103C221.846 97.4772 226.323 93 231.846 93H240.826C246.349 93 250.826 97.4772 250.826 103V124C250.826 129.523 246.349 134 240.826 134H231.846C226.323 134 221.846 129.523 221.846 124V103Z" fill="#27163F"/>
<path d="M221.846 243C221.846 237.477 226.323 233 231.846 233H240.826C246.349 233 250.826 237.477 250.826 243V264C250.826 269.523 246.349 274 240.826 274H231.846C226.323 274 221.846 269.523 221.846 264V243Z" fill="#27163F"/>
<path d="M71.9501 313C71.9501 307.477 76.4272 303 81.9501 303H90.9299C96.4528 303 100.93 307.477 100.93 313V334C100.93 339.523 96.4528 344 90.9299 344H81.9501C76.4272 344 71.9501 339.523 71.9501 334V313Z" fill="#27163F"/>
<path d="M121.915 103C121.915 97.4772 126.392 93 131.915 93H140.895C146.418 93 150.895 97.4772 150.895 103V124C150.895 129.523 146.418 134 140.895 134H131.915C126.392 134 121.915 129.523 121.915 124V103Z" fill="#DEFE47" fill-opacity="0.75"/>
<path d="M21.9847 103C21.9847 97.4772 26.4619 93 31.9847 93H40.9646C46.4875 93 50.9646 97.4772 50.9646 103V124C50.9646 129.523 46.4875 134 40.9646 134H31.9847C26.4619 134 21.9847 129.523 21.9847 124V103Z" fill="#DEFE47" fill-opacity="0.75"/>
<path d="M71.9501 33C71.9501 27.4772 76.4272 23 81.9501 23H90.9299C96.4528 23 100.93 27.4772 100.93 33V54C100.93 59.5228 96.4528 64 90.9299 64H81.9501C76.4272 64 71.9501 59.5228 71.9501 54V33Z" fill="#DEFE47" fill-opacity="0.75"/>
<path d="M71.9501 103C71.9501 97.4772 76.4272 93 81.9501 93H90.9299C96.4528 93 100.93 97.4772 100.93 103V124C100.93 129.523 96.4528 134 90.9299 134H81.9501C76.4272 134 71.9501 129.523 71.9501 124V103Z" fill="#27163F"/>
<path d="M21.9847 33C21.9847 27.4772 26.4619 23 31.9847 23H40.9646C46.4875 23 50.9646 27.4772 50.9646 33V54C50.9646 59.5228 46.4875 64 40.9646 64H31.9847C26.4619 64 21.9847 59.5228 21.9847 54V33Z" fill="#27163F"/>
<path d="M71.9501 173C71.9501 167.477 76.4272 163 81.9501 163H90.9299C96.4528 163 100.93 167.477 100.93 173V194C100.93 199.523 96.4528 204 90.9299 204H81.9501C76.4272 204 71.9501 199.523 71.9501 194V173Z" fill="#27163F"/>
<path d="M121.915 243C121.915 237.477 126.392 233 131.915 233H140.895C146.418 233 150.895 237.477 150.895 243V264C150.895 269.523 146.418 274 140.895 274H131.915C126.392 274 121.915 269.523 121.915 264V243Z" fill="#27163F"/>
<path d="M173.879 313C173.879 307.477 178.356 303 183.879 303H192.859C198.382 303 202.859 307.477 202.859 313V334C202.859 339.523 198.382 344 192.859 344H183.879C178.356 344 173.879 339.523 173.879 334V313Z" fill="#27163F"/>
<path d="M170.881 243C170.881 237.477 175.358 233 180.881 233H189.861C195.384 233 199.861 237.477 199.861 243V264C199.861 269.523 195.384 274 189.861 274H180.881C175.359 274 170.881 269.523 170.881 264V243Z" fill="#27163F"/>
<path d="M21.9847 243C21.9847 237.477 26.4619 233 31.9847 233H40.9646C46.4875 233 50.9646 237.477 50.9646 243V264C50.9646 269.523 46.4875 274 40.9646 274H31.9847C26.4619 274 21.9847 269.523 21.9847 264V243Z" fill="#27163F"/>
<path d="M21.9847 173C21.9847 167.477 26.4619 163 31.9847 163H40.9646C46.4875 163 50.9646 167.477 50.9646 173V194C50.9646 199.523 46.4875 204 40.9646 204H31.9847C26.4619 204 21.9847 199.523 21.9847 194V173Z" fill="#27163F"/>
<path d="M221.846 313C221.846 307.477 226.323 303 231.846 303H240.826C246.349 303 250.826 307.477 250.826 313V334C250.826 339.523 246.349 344 240.826 344H231.846C226.323 344 221.846 339.523 221.846 334V313Z" fill="#27163F"/>
<path d="M219.847 173C219.847 167.477 224.324 163 229.847 163H238.827C244.35 163 248.827 167.477 248.827 173V194C248.827 199.523 244.35 204 238.827 204H229.847C224.324 204 219.847 199.523 219.847 194V173Z" fill="#DEFE47" fill-opacity="0.75"/>
<path d="M71.9501 243C71.9501 237.477 76.4272 233 81.9501 233H90.9299C96.4528 233 100.93 237.477 100.93 243V264C100.93 269.523 96.4528 274 90.9299 274H81.9501C76.4272 274 71.9501 269.523 71.9501 264V243Z" fill="#DEFE47" fill-opacity="0.75"/>
<path d="M121.915 313C121.915 307.477 126.392 303 131.915 303H140.895C146.418 303 150.895 307.477 150.895 313V334C150.895 339.523 146.418 344 140.895 344H131.915C126.392 344 121.915 339.523 121.915 334V313Z" fill="#DEFE47" fill-opacity="0.75"/>
<path d="M21.9847 313C21.9847 307.477 26.4619 303 31.9847 303H40.9646C46.4875 303 50.9646 307.477 50.9646 313V334C50.9646 339.523 46.4875 344 40.9646 344H31.9847C26.4619 344 21.9847 339.523 21.9847 334V313Z" fill="#DEFE47" fill-opacity="0.75"/>
<path d="M171.881 103C171.881 97.4772 176.358 93 181.881 93H190.86C196.383 93 200.86 97.4772 200.86 103V124C200.86 129.523 196.383 134 190.86 134H181.881C176.358 134 171.881 129.523 171.881 124V103Z" fill="#27163F"/>
<path d="M171.881 33C171.881 27.4772 176.358 23 181.881 23H190.86C196.383 23 200.86 27.4772 200.86 33V54C200.86 59.5228 196.383 64 190.86 64H181.881C176.358 64 171.881 59.5228 171.881 54V33Z" fill="#27163F"/>
<path d="M221.846 33C221.846 27.4772 226.323 23 231.846 23H240.826C246.349 23 250.826 27.4772 250.826 33V54C250.826 59.5228 246.349 64 240.826 64H231.846C226.323 64 221.846 59.5228 221.846 54V33Z" fill="#DEFE47" fill-opacity="0.75"/>
<path d="M271.811 130C271.811 120.611 279.422 113 288.811 113H526.623C536.011 113 543.623 120.611 543.623 130V642C543.623 651.389 536.011 659 526.623 659H288.811C279.422 659 271.811 651.389 271.811 642V130Z" fill="black" fill-opacity="0.25"/>
<path d="M293.796 146C293.796 140.477 298.273 136 303.796 136H312.776C318.299 136 322.776 140.477 322.776 146V167C322.776 172.523 318.299 177 312.776 177H303.796C298.273 177 293.796 172.523 293.796 167V146Z" fill="#DEFE47" fill-opacity="0.75"/>
<path d="M393.727 146C393.727 140.477 398.204 136 403.727 136H412.706C418.229 136 422.706 140.477 422.706 146V167C422.706 172.523 418.229 177 412.706 177H403.727C398.204 177 393.727 172.523 393.727 167V146Z" fill="#27163F"/>
<path d="M393.727 286C393.727 280.477 398.204 276 403.727 276H412.706C418.229 276 422.706 280.477 422.706 286V307C422.706 312.523 418.229 317 412.706 317H403.727C398.204 317 393.727 312.523 393.727 307V286Z" fill="#27163F"/>
<path d="M393.727 216C393.727 210.477 398.204 206 403.727 206H412.706C418.229 206 422.706 210.477 422.706 216V237C422.706 242.523 418.229 247 412.706 247H403.727C398.204 247 393.727 242.523 393.727 237V216Z" fill="#27163F"/>
<path d="M293.796 216C293.796 210.477 298.273 206 303.796 206H312.776C318.299 206 322.776 210.477 322.776 216V237C322.776 242.523 318.299 247 312.776 247H303.796C298.273 247 293.796 242.523 293.796 237V216Z" fill="#27163F"/>
<path d="M343.761 146C343.761 140.477 348.238 136 353.761 136H362.741C368.264 136 372.741 140.477 372.741 146V167C372.741 172.523 368.264 177 362.741 177H353.761C348.238 177 343.761 172.523 343.761 167V146Z" fill="#27163F"/>
<path d="M343.761 216C343.761 210.477 348.238 206 353.761 206H362.741C368.264 206 372.741 210.477 372.741 216V237C372.741 242.523 368.264 247 362.741 247H353.761C348.238 247 343.761 242.523 343.761 237V216Z" fill="#DEFE47" fill-opacity="0.75"/>
<path d="M343.761 286C343.761 280.477 348.238 276 353.761 276H362.741C368.264 276 372.741 280.477 372.741 286V307C372.741 312.523 368.264 317 362.741 317H353.761C348.238 317 343.761 312.523 343.761 307V286Z" fill="#27163F"/>
<path d="M293.796 286C293.796 280.477 298.273 276 303.796 276H312.776C318.299 276 322.776 280.477 322.776 286V307C322.776 312.523 318.299 317 312.776 317H303.796C298.273 317 293.796 312.523 293.796 307V286Z" fill="#DEFE47" fill-opacity="0.75"/>
<path d="M443.692 286C443.692 280.477 448.169 276 453.692 276H462.672C468.195 276 472.672 280.477 472.672 286V307C472.672 312.523 468.195 317 462.672 317H453.692C448.169 317 443.692 312.523 443.692 307V286Z" fill="#DEFE47" fill-opacity="0.75"/>
<path d="M443.692 216C443.692 210.477 448.169 206 453.692 206H462.672C468.195 206 472.672 210.477 472.672 216V237C472.672 242.523 468.195 247 462.672 247H453.692C448.169 247 443.692 242.523 443.692 237V216Z" fill="#27163F"/>
<path d="M493.657 216C493.657 210.477 498.134 206 503.657 206H512.637C518.16 206 522.637 210.477 522.637 216V237C522.637 242.523 518.16 247 512.637 247H503.657C498.134 247 493.657 242.523 493.657 237V216Z" fill="#DEFE47" fill-opacity="0.75"/>
<path d="M493.657 286C493.657 280.477 498.134 276 503.657 276H512.637C518.16 276 522.637 280.477 522.637 286V307C522.637 312.523 518.16 317 512.637 317H503.657C498.134 317 493.657 312.523 493.657 307V286Z" fill="#27163F"/>
<path d="M443.692 146C443.692 140.477 448.169 136 453.692 136H462.672C468.195 136 472.672 140.477 472.672 146V167C472.672 172.523 468.195 177 462.672 177H453.692C448.169 177 443.692 172.523 443.692 167V146Z" fill="#27163F"/>
<path d="M493.657 146C493.657 140.477 498.134 136 503.657 136H512.637C518.16 136 522.637 140.477 522.637 146V167C522.637 172.523 518.16 177 512.637 177H503.657C498.134 177 493.657 172.523 493.657 167V146Z" fill="#27163F"/>
</svg>
